<mxfile host="app.diagrams.net" agent="Mozilla/5.0 (Windows NT 10.0; Win64; x64) AppleWebKit/537.36 (KHTML, like Gecko) Chrome/127.0.0.0 Safari/537.36" version="24.7.6">
  <diagram name="Página-1" id="gNjQkXU2nwdmOtFaownC">
    <mxGraphModel dx="1050" dy="522" grid="1" gridSize="10" guides="1" tooltips="1" connect="1" arrows="1" fold="1" page="1" pageScale="1" pageWidth="827" pageHeight="1169" math="0" shadow="0">
      <root>
        <mxCell id="0" />
        <mxCell id="1" parent="0" />
        <mxCell id="78iUFwGngGwtB2bksCVc-1" value="Usuário" style="shape=umlActor;verticalLabelPosition=bottom;verticalAlign=top;html=1;outlineConnect=0;" vertex="1" parent="1">
          <mxGeometry x="64" y="71" width="30" height="60" as="geometry" />
        </mxCell>
        <mxCell id="78iUFwGngGwtB2bksCVc-2" value="Cadastrar Medicamento" style="rounded=1;whiteSpace=wrap;html=1;fillColor=#d0cee2;strokeColor=#56517e;" vertex="1" parent="1">
          <mxGeometry x="246" y="66" width="110" height="50" as="geometry" />
        </mxCell>
        <mxCell id="78iUFwGngGwtB2bksCVc-3" value="" style="rounded=1;whiteSpace=wrap;html=1;rotation=90;fillColor=#000000;arcSize=50;" vertex="1" parent="1">
          <mxGeometry x="-13.25" y="285.75" width="188.5" height="20" as="geometry" />
        </mxCell>
        <mxCell id="78iUFwGngGwtB2bksCVc-4" value="" style="endArrow=none;dashed=1;html=1;dashPattern=1 3;strokeWidth=2;rounded=0;" edge="1" parent="1">
          <mxGeometry width="50" height="50" relative="1" as="geometry">
            <mxPoint x="81" y="213" as="sourcePoint" />
            <mxPoint x="81" y="163" as="targetPoint" />
          </mxGeometry>
        </mxCell>
        <mxCell id="78iUFwGngGwtB2bksCVc-5" value="" style="rounded=1;whiteSpace=wrap;html=1;rotation=90;fillColor=#000000;arcSize=50;" vertex="1" parent="1">
          <mxGeometry x="206.75" y="285.75" width="188.5" height="20" as="geometry" />
        </mxCell>
        <mxCell id="78iUFwGngGwtB2bksCVc-6" value="" style="endArrow=none;dashed=1;html=1;dashPattern=1 3;strokeWidth=2;rounded=0;" edge="1" parent="1">
          <mxGeometry width="50" height="50" relative="1" as="geometry">
            <mxPoint x="300.5" y="210" as="sourcePoint" />
            <mxPoint x="301" y="140" as="targetPoint" />
          </mxGeometry>
        </mxCell>
        <mxCell id="78iUFwGngGwtB2bksCVc-7" value="" style="endArrow=classic;html=1;rounded=0;" edge="1" parent="1">
          <mxGeometry width="50" height="50" relative="1" as="geometry">
            <mxPoint x="100" y="219" as="sourcePoint" />
            <mxPoint x="277" y="219" as="targetPoint" />
          </mxGeometry>
        </mxCell>
        <mxCell id="78iUFwGngGwtB2bksCVc-8" value="1.Entrada de dados(medicamento)" style="edgeLabel;html=1;align=center;verticalAlign=middle;resizable=0;points=[];" vertex="1" connectable="0" parent="78iUFwGngGwtB2bksCVc-7">
          <mxGeometry x="-0.0275" relative="1" as="geometry">
            <mxPoint x="-2" y="-1" as="offset" />
          </mxGeometry>
        </mxCell>
        <mxCell id="78iUFwGngGwtB2bksCVc-9" value="Banco de Dados&lt;br&gt;Local" style="rounded=1;whiteSpace=wrap;html=1;fillColor=#d0cee2;strokeColor=#56517e;" vertex="1" parent="1">
          <mxGeometry x="669" y="66" width="110" height="50" as="geometry" />
        </mxCell>
        <mxCell id="78iUFwGngGwtB2bksCVc-10" value="" style="rounded=1;whiteSpace=wrap;html=1;rotation=90;fillColor=#000000;arcSize=50;" vertex="1" parent="1">
          <mxGeometry x="681.75" y="233.75" width="84.5" height="20" as="geometry" />
        </mxCell>
        <mxCell id="78iUFwGngGwtB2bksCVc-11" value="" style="endArrow=none;dashed=1;html=1;dashPattern=1 3;strokeWidth=2;rounded=0;" edge="1" parent="1">
          <mxGeometry width="50" height="50" relative="1" as="geometry">
            <mxPoint x="723.5" y="220" as="sourcePoint" />
            <mxPoint x="724" y="150" as="targetPoint" />
          </mxGeometry>
        </mxCell>
        <mxCell id="78iUFwGngGwtB2bksCVc-12" value="" style="rounded=1;whiteSpace=wrap;html=1;rotation=90;fillColor=#000000;arcSize=50;" vertex="1" parent="1">
          <mxGeometry x="679.88" y="333.88" width="88.25" height="20" as="geometry" />
        </mxCell>
        <mxCell id="78iUFwGngGwtB2bksCVc-13" value="" style="endArrow=classic;html=1;rounded=0;" edge="1" parent="1">
          <mxGeometry width="50" height="50" relative="1" as="geometry">
            <mxPoint x="527" y="220" as="sourcePoint" />
            <mxPoint x="707" y="220" as="targetPoint" />
          </mxGeometry>
        </mxCell>
        <mxCell id="78iUFwGngGwtB2bksCVc-14" value="3.Verifica se os dados já existem" style="edgeLabel;html=1;align=center;verticalAlign=middle;resizable=0;points=[];" vertex="1" connectable="0" parent="78iUFwGngGwtB2bksCVc-13">
          <mxGeometry x="-0.0275" relative="1" as="geometry">
            <mxPoint x="-1" as="offset" />
          </mxGeometry>
        </mxCell>
        <mxCell id="78iUFwGngGwtB2bksCVc-15" value="" style="endArrow=classic;html=1;rounded=0;dashed=1;" edge="1" parent="1">
          <mxGeometry width="50" height="50" relative="1" as="geometry">
            <mxPoint x="610" y="252.75" as="sourcePoint" />
            <mxPoint x="530" y="252.75" as="targetPoint" />
            <Array as="points">
              <mxPoint x="704" y="252.75" />
            </Array>
          </mxGeometry>
        </mxCell>
        <mxCell id="78iUFwGngGwtB2bksCVc-16" value="Text" style="edgeLabel;html=1;align=center;verticalAlign=middle;resizable=0;points=[];" vertex="1" connectable="0" parent="78iUFwGngGwtB2bksCVc-15">
          <mxGeometry x="-0.6791" y="-1" relative="1" as="geometry">
            <mxPoint as="offset" />
          </mxGeometry>
        </mxCell>
        <mxCell id="78iUFwGngGwtB2bksCVc-17" value="4.Medicamento não existe" style="edgeLabel;html=1;align=center;verticalAlign=middle;resizable=0;points=[];" vertex="1" connectable="0" parent="78iUFwGngGwtB2bksCVc-15">
          <mxGeometry x="0.0634" y="3" relative="1" as="geometry">
            <mxPoint x="-41" y="-3" as="offset" />
          </mxGeometry>
        </mxCell>
        <mxCell id="78iUFwGngGwtB2bksCVc-18" value="Regra de Negócios" style="rounded=1;whiteSpace=wrap;html=1;fillColor=#d0cee2;strokeColor=#56517e;" vertex="1" parent="1">
          <mxGeometry x="455" y="65" width="110" height="50" as="geometry" />
        </mxCell>
        <mxCell id="78iUFwGngGwtB2bksCVc-19" value="" style="rounded=1;whiteSpace=wrap;html=1;rotation=90;fillColor=#000000;arcSize=50;" vertex="1" parent="1">
          <mxGeometry x="467.75" y="232.75" width="84.5" height="20" as="geometry" />
        </mxCell>
        <mxCell id="78iUFwGngGwtB2bksCVc-20" value="" style="endArrow=none;dashed=1;html=1;dashPattern=1 3;strokeWidth=2;rounded=0;" edge="1" parent="1">
          <mxGeometry width="50" height="50" relative="1" as="geometry">
            <mxPoint x="509.5" y="219" as="sourcePoint" />
            <mxPoint x="510" y="149" as="targetPoint" />
          </mxGeometry>
        </mxCell>
        <mxCell id="78iUFwGngGwtB2bksCVc-21" value="" style="rounded=1;whiteSpace=wrap;html=1;rotation=90;fillColor=#000000;arcSize=50;" vertex="1" parent="1">
          <mxGeometry x="463.88" y="334.87" width="92.25" height="20" as="geometry" />
        </mxCell>
        <mxCell id="78iUFwGngGwtB2bksCVc-22" value="" style="endArrow=classic;html=1;rounded=0;dashed=1;" edge="1" parent="1">
          <mxGeometry width="50" height="50" relative="1" as="geometry">
            <mxPoint x="481" y="254" as="sourcePoint" />
            <mxPoint x="321" y="254" as="targetPoint" />
          </mxGeometry>
        </mxCell>
        <mxCell id="78iUFwGngGwtB2bksCVc-23" value="5.Cadastra novo Medicamento" style="edgeLabel;html=1;align=center;verticalAlign=middle;resizable=0;points=[];" vertex="1" connectable="0" parent="78iUFwGngGwtB2bksCVc-22">
          <mxGeometry x="-0.0979" y="2" relative="1" as="geometry">
            <mxPoint x="-1" y="-2" as="offset" />
          </mxGeometry>
        </mxCell>
        <mxCell id="78iUFwGngGwtB2bksCVc-24" value="" style="endArrow=classic;html=1;rounded=0;" edge="1" parent="1">
          <mxGeometry width="50" height="50" relative="1" as="geometry">
            <mxPoint x="320" y="320" as="sourcePoint" />
            <mxPoint x="490" y="320" as="targetPoint" />
          </mxGeometry>
        </mxCell>
        <mxCell id="78iUFwGngGwtB2bksCVc-25" value="6.Verifica dados" style="edgeLabel;html=1;align=center;verticalAlign=middle;resizable=0;points=[];" vertex="1" connectable="0" parent="78iUFwGngGwtB2bksCVc-24">
          <mxGeometry x="-0.0922" y="-1" relative="1" as="geometry">
            <mxPoint x="8" y="-1" as="offset" />
          </mxGeometry>
        </mxCell>
        <mxCell id="78iUFwGngGwtB2bksCVc-26" value="" style="endArrow=classic;html=1;rounded=0;" edge="1" parent="1">
          <mxGeometry width="50" height="50" relative="1" as="geometry">
            <mxPoint x="530" y="320" as="sourcePoint" />
            <mxPoint x="700" y="320" as="targetPoint" />
          </mxGeometry>
        </mxCell>
        <mxCell id="78iUFwGngGwtB2bksCVc-27" value="7.Insere Dados no Banco&amp;nbsp;" style="edgeLabel;html=1;align=center;verticalAlign=middle;resizable=0;points=[];" vertex="1" connectable="0" parent="78iUFwGngGwtB2bksCVc-26">
          <mxGeometry x="-0.1902" relative="1" as="geometry">
            <mxPoint x="9" as="offset" />
          </mxGeometry>
        </mxCell>
        <mxCell id="78iUFwGngGwtB2bksCVc-28" value="" style="endArrow=classic;html=1;rounded=0;dashed=1;" edge="1" parent="1">
          <mxGeometry width="50" height="50" relative="1" as="geometry">
            <mxPoint x="700" y="375" as="sourcePoint" />
            <mxPoint x="530" y="375" as="targetPoint" />
          </mxGeometry>
        </mxCell>
        <mxCell id="78iUFwGngGwtB2bksCVc-29" value="8.Confirma os Dados Inseridos" style="edgeLabel;html=1;align=center;verticalAlign=middle;resizable=0;points=[];" vertex="1" connectable="0" parent="78iUFwGngGwtB2bksCVc-28">
          <mxGeometry x="0.0137" relative="1" as="geometry">
            <mxPoint x="3" as="offset" />
          </mxGeometry>
        </mxCell>
        <mxCell id="78iUFwGngGwtB2bksCVc-30" value="" style="endArrow=classic;html=1;rounded=0;dashed=1;" edge="1" parent="1">
          <mxGeometry width="50" height="50" relative="1" as="geometry">
            <mxPoint x="482" y="374" as="sourcePoint" />
            <mxPoint x="322" y="374" as="targetPoint" />
          </mxGeometry>
        </mxCell>
        <mxCell id="78iUFwGngGwtB2bksCVc-31" value="9.Confirma novo Medicamento" style="edgeLabel;html=1;align=center;verticalAlign=middle;resizable=0;points=[];" vertex="1" connectable="0" parent="78iUFwGngGwtB2bksCVc-30">
          <mxGeometry x="-0.0438" y="1" relative="1" as="geometry">
            <mxPoint x="4" y="-1" as="offset" />
          </mxGeometry>
        </mxCell>
        <mxCell id="78iUFwGngGwtB2bksCVc-32" value="" style="endArrow=classic;html=1;rounded=0;dashed=1;" edge="1" parent="1">
          <mxGeometry width="50" height="50" relative="1" as="geometry">
            <mxPoint x="280" y="376" as="sourcePoint" />
            <mxPoint x="100" y="376" as="targetPoint" />
          </mxGeometry>
        </mxCell>
        <mxCell id="78iUFwGngGwtB2bksCVc-33" value="10.Finaliza Cadastro" style="edgeLabel;html=1;align=center;verticalAlign=middle;resizable=0;points=[];" vertex="1" connectable="0" parent="78iUFwGngGwtB2bksCVc-32">
          <mxGeometry x="0.1796" relative="1" as="geometry">
            <mxPoint x="16" as="offset" />
          </mxGeometry>
        </mxCell>
        <mxCell id="78iUFwGngGwtB2bksCVc-34" value="" style="endArrow=classic;html=1;rounded=0;" edge="1" parent="1">
          <mxGeometry width="50" height="50" relative="1" as="geometry">
            <mxPoint x="325.25" y="219" as="sourcePoint" />
            <mxPoint x="490" y="220" as="targetPoint" />
          </mxGeometry>
        </mxCell>
        <mxCell id="78iUFwGngGwtB2bksCVc-35" value="2.Cria novo Medicamento" style="edgeLabel;html=1;align=center;verticalAlign=middle;resizable=0;points=[];" vertex="1" connectable="0" parent="78iUFwGngGwtB2bksCVc-34">
          <mxGeometry x="-0.0762" y="-2" relative="1" as="geometry">
            <mxPoint x="1" y="-2" as="offset" />
          </mxGeometry>
        </mxCell>
        <mxCell id="78iUFwGngGwtB2bksCVc-36" value="" style="endArrow=none;dashed=1;html=1;rounded=0;" edge="1" parent="1">
          <mxGeometry width="50" height="50" relative="1" as="geometry">
            <mxPoint x="80.58" y="480" as="sourcePoint" />
            <mxPoint x="80.58" y="410" as="targetPoint" />
          </mxGeometry>
        </mxCell>
        <mxCell id="78iUFwGngGwtB2bksCVc-37" value="" style="endArrow=none;html=1;rounded=0;strokeWidth=4;" edge="1" parent="1">
          <mxGeometry width="50" height="50" relative="1" as="geometry">
            <mxPoint x="53" y="539" as="sourcePoint" />
            <mxPoint x="103" y="489" as="targetPoint" />
          </mxGeometry>
        </mxCell>
        <mxCell id="78iUFwGngGwtB2bksCVc-38" value="" style="endArrow=none;html=1;rounded=0;strokeWidth=4;" edge="1" parent="1">
          <mxGeometry width="50" height="50" relative="1" as="geometry">
            <mxPoint x="57" y="486" as="sourcePoint" />
            <mxPoint x="101" y="542" as="targetPoint" />
          </mxGeometry>
        </mxCell>
      </root>
    </mxGraphModel>
  </diagram>
</mxfile>
